<svg width="600" height="300" viewBox="0 0 600 300" xmlns="http://www.w3.org/2000/svg" role="img">
<title>Seguridad — sitio sin base de datos, sin puerta de entrada para ataques</title>
<defs>
<linearGradient id="bgGrad" x1="0" y1="0" x2="1" y2="1">
<stop offset="0%" stop-color="#1e1e30"/>
<stop offset="100%" stop-color="#181828"/>
</linearGradient>
<linearGradient id="shieldGrad" x1="0" y1="0" x2="0" y2="1">
<stop offset="0%" stop-color="#ffd166"/>
<stop offset="100%" stop-color="#f0b429"/>
</linearGradient>
</defs>
<rect width="600" height="300" fill="url(#bgGrad)"/>
<g opacity="0.06" stroke="#4a7cf6" stroke-width="1">
<line x1="0" y1="60" x2="600" y2="60"/>
<line x1="0" y1="240" x2="600" y2="240"/>
<line x1="150" y1="0" x2="150" y2="300"/>
<line x1="450" y1="0" x2="450" y2="300"/>
</g>
<circle cx="300" cy="150" r="95" fill="#22c55e" opacity="0.08"/>
<path d="M300 68 L370 92 V152 C370 196 340 226 300 240 C260 226 230 196 230 152 V92 Z" fill="url(#shieldGrad)"/>
<path d="M300 78 L360 99 V152 C360 190 335 216 300 229 C265 216 240 190 240 152 V99 Z" fill="#181828"/>
<path d="M270 150 L292 172 L334 128" fill="none" stroke="#22c55e" stroke-width="9" stroke-linecap="round" stroke-linejoin="round"/>
<g fill="#7070a0" opacity="0.55">
<circle cx="120" cy="90" r="3"/>
<circle cx="130" cy="90" r="3"/>
<circle cx="140" cy="90" r="3"/>
<circle cx="460" cy="210" r="3"/>
<circle cx="470" cy="210" r="3"/>
<circle cx="480" cy="210" r="3"/>
</g>
</svg>
